<svg width="150" height="51" viewBox="0 0 150 51" fill="none" xmlns="http://www.w3.org/2000/svg">
<path d="M26.207 19.5117C25.0026 19.9023 23.7005 20.0977 22.3008 20.0977C17.418 20.0977 14.9766 17.6725 14.9766 12.8223C14.9766 8.23242 17.418 5.9375 22.3008 5.9375C23.7005 5.9375 25.0026 6.13281 26.207 6.52344V8.08594C25.0026 7.63021 23.7656 7.40234 22.4961 7.40234C18.6875 7.40234 16.7832 9.20898 16.7832 12.8223C16.7832 16.696 18.6875 18.6328 22.4961 18.6328C23.7656 18.6328 25.0026 18.4049 26.207 17.9492V19.5117ZM38.9219 14.9219C38.9219 18.3724 37.2357 20.0977 33.8633 20.0977C30.4583 20.0977 28.7559 18.3724 28.7559 14.9219V11.748C28.7559 7.93945 30.5267 6.03516 34.0684 6.03516C35.9694 6.03516 37.4766 5.68034 38.5898 4.9707V6.5625C37.5938 7.1875 36.0768 7.5 34.0391 7.5C31.7539 7.5 30.6113 8.88346 30.6113 11.6504C31.4512 10.3809 32.5677 9.74609 33.9609 9.74609C37.2682 9.74609 38.9219 11.3997 38.9219 14.707V14.9219ZM33.8633 18.6328C36.0247 18.6328 37.1055 17.3958 37.1055 14.9219C37.1055 12.487 36.0573 11.2695 33.9609 11.2695C31.7279 11.2695 30.6113 12.487 30.6113 14.9219C30.6113 17.3958 31.6953 18.6328 33.8633 18.6328ZM40.9922 14.873C40.9922 11.39 42.6849 9.64844 46.0703 9.64844C49.4557 9.64844 51.1484 11.39 51.1484 14.873C51.1484 18.3561 49.4557 20.0977 46.0703 20.0977C42.6979 20.0977 41.0052 18.3561 40.9922 14.873ZM42.7988 14.834C42.7988 17.3665 43.8893 18.6328 46.0703 18.6328C48.2513 18.6328 49.3418 17.3665 49.3418 14.834C49.3418 12.3535 48.2513 11.1133 46.0703 11.1133C43.8893 11.1133 42.7988 12.3535 42.7988 14.834ZM55.3965 17.9102C56.1061 18.2617 56.8971 18.4375 57.7695 18.4375C60.0938 18.4375 61.2559 17.1582 61.2559 14.5996C61.2559 12.3665 60.1003 11.25 57.7891 11.25C56.8776 11.25 56.0801 11.3281 55.3965 11.4844V17.9102ZM53.5898 10.166C54.9505 9.88607 56.3568 9.74609 57.8086 9.74609C61.2917 9.74609 63.0332 11.3704 63.0332 14.6191C63.0332 18.2064 61.2819 20 57.7793 20C56.959 20 56.1647 19.8372 55.3965 19.5117V23.7109H53.5898V10.166ZM65.4844 20V9.74609H67.291V18.5352H71.0996V9.74609H72.9062V18.5352H76.7148V9.74609H78.5215V18.5352H80.3281V23.7109H78.5215V20H65.4844ZM90.0938 20V12.0703L84.5762 20H82.7695V9.74609H84.4785V17.6758L89.9961 9.74609H91.8027V20H90.0938ZM101.725 20L100.289 17.5977C99.3255 15.9896 98.3945 15.1855 97.4961 15.1855V13.9844C98.5378 13.9844 99.3125 13.278 99.8203 11.8652C100.335 10.4525 101.204 9.74609 102.428 9.74609H103.473V11.3086H102.701C101.998 11.3086 101.48 11.7871 101.148 12.7441C100.816 13.6947 100.243 14.3294 99.4297 14.6484C100.198 14.7852 101.119 15.7096 102.193 17.4219L103.814 20H101.725ZM96.5488 9.74609V20H94.7422V9.74609H96.5488ZM110.841 20V5.72H112.861L119.361 17.48H119.441C119.428 17.1333 119.408 16.7333 119.381 16.28C119.355 15.8267 119.335 15.3733 119.321 14.92C119.308 14.4533 119.301 14.0533 119.301 13.72V5.72H120.881V20H118.921L112.341 8.2H112.261C112.288 8.54667 112.308 8.96 112.321 9.44C112.348 9.90667 112.368 10.3733 112.381 10.84C112.408 11.3067 112.421 11.72 112.421 12.08V20H110.841ZM122.781 20V18.62H127.921V20H122.781ZM125.341 17.32C124.768 17.32 124.255 17.1933 123.801 16.94C123.361 16.6733 123.015 16.2867 122.761 15.78C122.508 15.2733 122.381 14.6533 122.381 13.92C122.381 12.8267 122.648 11.9933 123.181 11.42C123.728 10.8333 124.468 10.54 125.401 10.54C125.975 10.54 126.481 10.6733 126.921 10.94C127.375 11.1933 127.728 11.5733 127.981 12.08C128.248 12.5733 128.381 13.1867 128.381 13.92C128.381 15.0133 128.108 15.8533 127.561 16.44C127.015 17.0267 126.275 17.32 125.341 17.32ZM125.381 16.16C125.968 16.16 126.388 15.9733 126.641 15.6C126.895 15.2133 127.021 14.6533 127.021 13.92C127.021 13.1733 126.895 12.6267 126.641 12.28C126.388 11.92 125.968 11.74 125.381 11.74C124.808 11.74 124.388 11.92 124.121 12.28C123.855 12.6267 123.721 13.1733 123.721 13.92C123.721 14.6533 123.848 15.2133 124.101 15.6C124.368 15.9733 124.795 16.16 125.381 16.16ZM131.773 20V7.7832H130.309V6.91406L133.58 5.9375V20H131.773Z" fill="#262626"/>
<path d="M22.2969 44.2422C23.5156 44.2422 24.125 43.6172 24.125 42.3672C24.125 41.1953 23.1758 40.6094 21.2773 40.6094H20.3398V39.1914C22.7617 38.918 23.9727 38.1016 23.9727 36.7422C23.9727 35.8828 23.4727 35.4531 22.4727 35.4531H17.9258V44.2422H22.2969ZM15.7578 46V33.6953H22.6719C25.0781 33.6953 26.2812 34.7227 26.2812 36.7773C26.2812 38.0508 25.5156 38.9961 23.9844 39.6133C25.6562 40.0273 26.4922 40.9336 26.4922 42.332C26.4922 44.7773 25.1367 46 22.4258 46H15.7578Z" fill="#262626"/>
<path d="M54.7227 30.2422V32H45.1719V45.207H49.9414C51.8008 45.207 52.7305 44.2344 52.7305 42.2891C52.7305 40.1953 51.5898 39.1484 49.3086 39.1484H47.1055V37.3906H49.4141C53.0703 37.3906 54.8984 38.9805 54.8984 42.1602C54.8984 45.3867 53.3125 47 50.1406 47H42.9922V30.2422H54.7227ZM66.9219 47V37.4844L60.3008 47H58.1328V34.6953H60.1836V44.2109L66.8047 34.6953H68.9727V47H66.9219ZM81.2891 47V37.4844L74.668 47H72.5V34.6953H74.5508V44.2109L81.1719 34.6953H83.3398V47H81.2891ZM74.8203 30.2422H76.4023C76.4023 31.4141 76.9102 32 77.9258 32C78.9414 32 79.4492 31.4141 79.4492 30.2422H81.0312C81.0312 32.2734 79.9961 33.2891 77.9258 33.2891C75.8555 33.2891 74.8203 32.2734 74.8203 30.2422ZM96.125 46.6484C95.1094 46.8828 94.0156 47 92.8438 47C88.4688 47 86.2812 44.8711 86.2812 40.6133C86.2812 36.668 88.4688 34.6953 92.8438 34.6953C94.0156 34.6953 95.1094 34.8125 96.125 35.0469V36.8047C95.1094 36.5703 93.9766 36.4531 92.7266 36.4531C89.875 36.4531 88.4492 37.8398 88.4492 40.6133C88.4492 43.6992 89.875 45.2422 92.7266 45.2422C93.9766 45.2422 95.1094 45.125 96.125 44.8906V46.6484ZM107.27 47L105.547 44.1172C104.391 42.1875 103.273 41.2227 102.195 41.2227V39.7812C103.445 39.7812 104.375 38.9336 104.984 37.2383C105.602 35.543 106.645 34.6953 108.113 34.6953H109.367V36.5703H108.441C107.598 36.5703 106.977 37.1445 106.578 38.293C106.18 39.4336 105.492 40.1953 104.516 40.5781C105.438 40.7422 106.543 41.8516 107.832 43.9062L109.777 47H107.27ZM101.059 34.6953V47H98.8906V34.6953H101.059ZM116.902 34.6953C120.402 34.6953 122.152 36.4258 122.152 39.8867C122.152 40.3789 122.117 40.9062 122.047 41.4688H113.41C113.41 43.9844 114.879 45.2422 117.816 45.2422C119.215 45.2422 120.457 45.0859 121.543 44.7734V46.5312C120.457 46.8438 119.137 47 117.582 47C113.355 47 111.242 44.9023 111.242 40.707C111.242 36.6992 113.129 34.6953 116.902 34.6953ZM113.41 39.6641H120.066C120.02 37.5078 118.965 36.4297 116.902 36.4297C114.715 36.4297 113.551 37.5078 113.41 39.6641Z" fill="#DE602A"/>
</svg>
